<mxfile host="app.diagrams.net" agent="Mozilla/5.0 (Windows NT 10.0; Win64; x64) AppleWebKit/537.36 (KHTML, like Gecko) Chrome/131.0.0.0 Safari/537.36" version="25.0.0">
  <diagram name="Страница — 1" id="uD63ZaHKUUFPWPxa6InC">
    <mxGraphModel dx="2625" dy="1318" grid="1" gridSize="10" guides="1" tooltips="1" connect="1" arrows="1" fold="1" page="1" pageScale="1" pageWidth="827" pageHeight="1169" math="0" shadow="0">
      <root>
        <mxCell id="0" />
        <mxCell id="1" parent="0" />
        <mxCell id="hpCkqJ2XownlIG7Yb6gs-45" style="edgeStyle=orthogonalEdgeStyle;rounded=0;orthogonalLoop=1;jettySize=auto;html=1;curved=1;" edge="1" parent="1" source="hpCkqJ2XownlIG7Yb6gs-1" target="hpCkqJ2XownlIG7Yb6gs-37">
          <mxGeometry relative="1" as="geometry">
            <Array as="points">
              <mxPoint x="85" y="270" />
              <mxPoint x="180" y="270" />
            </Array>
          </mxGeometry>
        </mxCell>
        <mxCell id="hpCkqJ2XownlIG7Yb6gs-1" value="Guest" style="shape=umlActor;verticalLabelPosition=bottom;verticalAlign=top;html=1;outlineConnect=0;" vertex="1" parent="1">
          <mxGeometry x="70" y="160" width="30" height="60" as="geometry" />
        </mxCell>
        <mxCell id="hpCkqJ2XownlIG7Yb6gs-2" value="User" style="shape=umlActor;verticalLabelPosition=bottom;verticalAlign=top;html=1;outlineConnect=0;" vertex="1" parent="1">
          <mxGeometry x="80" width="30" height="60" as="geometry" />
        </mxCell>
        <mxCell id="hpCkqJ2XownlIG7Yb6gs-40" style="edgeStyle=orthogonalEdgeStyle;rounded=0;orthogonalLoop=1;jettySize=auto;html=1;entryX=0;entryY=0.5;entryDx=0;entryDy=0;curved=1;" edge="1" parent="1" source="hpCkqJ2XownlIG7Yb6gs-3" target="hpCkqJ2XownlIG7Yb6gs-25">
          <mxGeometry relative="1" as="geometry" />
        </mxCell>
        <mxCell id="hpCkqJ2XownlIG7Yb6gs-3" value="Admin" style="shape=umlActor;verticalLabelPosition=bottom;verticalAlign=top;html=1;outlineConnect=0;" vertex="1" parent="1">
          <mxGeometry x="100" y="505" width="30" height="60" as="geometry" />
        </mxCell>
        <mxCell id="hpCkqJ2XownlIG7Yb6gs-12" style="edgeStyle=orthogonalEdgeStyle;rounded=0;orthogonalLoop=1;jettySize=auto;html=1;exitX=0;exitY=0.5;exitDx=0;exitDy=0;entryX=0.993;entryY=0.342;entryDx=0;entryDy=0;dashed=1;curved=1;entryPerimeter=0;" edge="1" parent="1" source="hpCkqJ2XownlIG7Yb6gs-5" target="hpCkqJ2XownlIG7Yb6gs-9">
          <mxGeometry relative="1" as="geometry" />
        </mxCell>
        <mxCell id="hpCkqJ2XownlIG7Yb6gs-21" value="include" style="edgeLabel;html=1;align=center;verticalAlign=middle;resizable=0;points=[];" vertex="1" connectable="0" parent="hpCkqJ2XownlIG7Yb6gs-12">
          <mxGeometry x="-0.0463" relative="1" as="geometry">
            <mxPoint as="offset" />
          </mxGeometry>
        </mxCell>
        <mxCell id="hpCkqJ2XownlIG7Yb6gs-5" value="Просмотр мероприятий" style="ellipse;whiteSpace=wrap;html=1;" vertex="1" parent="1">
          <mxGeometry x="440" y="30" width="120" height="80" as="geometry" />
        </mxCell>
        <mxCell id="hpCkqJ2XownlIG7Yb6gs-13" style="edgeStyle=orthogonalEdgeStyle;rounded=0;orthogonalLoop=1;jettySize=auto;html=1;exitX=0;exitY=0.5;exitDx=0;exitDy=0;dashed=1;curved=1;entryX=0.96;entryY=0.713;entryDx=0;entryDy=0;entryPerimeter=0;" edge="1" parent="1" source="hpCkqJ2XownlIG7Yb6gs-6" target="hpCkqJ2XownlIG7Yb6gs-9">
          <mxGeometry relative="1" as="geometry">
            <mxPoint x="370" y="200" as="targetPoint" />
          </mxGeometry>
        </mxCell>
        <mxCell id="hpCkqJ2XownlIG7Yb6gs-16" value="extend" style="edgeLabel;html=1;align=center;verticalAlign=middle;resizable=0;points=[];" vertex="1" connectable="0" parent="hpCkqJ2XownlIG7Yb6gs-13">
          <mxGeometry x="-0.0879" y="-1" relative="1" as="geometry">
            <mxPoint as="offset" />
          </mxGeometry>
        </mxCell>
        <mxCell id="hpCkqJ2XownlIG7Yb6gs-6" value="Бронировать мероприятие" style="ellipse;whiteSpace=wrap;html=1;" vertex="1" parent="1">
          <mxGeometry x="510" y="160" width="120" height="80" as="geometry" />
        </mxCell>
        <mxCell id="hpCkqJ2XownlIG7Yb6gs-14" style="edgeStyle=orthogonalEdgeStyle;rounded=0;orthogonalLoop=1;jettySize=auto;html=1;exitX=0;exitY=0.5;exitDx=0;exitDy=0;dashed=1;curved=1;entryX=0.5;entryY=1;entryDx=0;entryDy=0;" edge="1" parent="1" source="hpCkqJ2XownlIG7Yb6gs-7" target="hpCkqJ2XownlIG7Yb6gs-9">
          <mxGeometry relative="1" as="geometry">
            <mxPoint x="370" y="200" as="targetPoint" />
          </mxGeometry>
        </mxCell>
        <mxCell id="hpCkqJ2XownlIG7Yb6gs-17" value="extend" style="edgeLabel;html=1;align=center;verticalAlign=middle;resizable=0;points=[];" vertex="1" connectable="0" parent="hpCkqJ2XownlIG7Yb6gs-14">
          <mxGeometry x="-0.0166" relative="1" as="geometry">
            <mxPoint as="offset" />
          </mxGeometry>
        </mxCell>
        <mxCell id="hpCkqJ2XownlIG7Yb6gs-7" value="Отменять мероприятие" style="ellipse;whiteSpace=wrap;html=1;" vertex="1" parent="1">
          <mxGeometry x="440" y="300" width="120" height="80" as="geometry" />
        </mxCell>
        <mxCell id="hpCkqJ2XownlIG7Yb6gs-9" value="Заказ мероприятие" style="ellipse;whiteSpace=wrap;html=1;" vertex="1" parent="1">
          <mxGeometry x="250" y="160" width="120" height="80" as="geometry" />
        </mxCell>
        <mxCell id="hpCkqJ2XownlIG7Yb6gs-23" style="edgeStyle=orthogonalEdgeStyle;rounded=0;orthogonalLoop=1;jettySize=auto;html=1;exitX=0;exitY=0.5;exitDx=0;exitDy=0;dashed=1;curved=1;" edge="1" parent="1" source="hpCkqJ2XownlIG7Yb6gs-22" target="hpCkqJ2XownlIG7Yb6gs-6">
          <mxGeometry relative="1" as="geometry" />
        </mxCell>
        <mxCell id="hpCkqJ2XownlIG7Yb6gs-24" value="extend" style="edgeLabel;html=1;align=center;verticalAlign=middle;resizable=0;points=[];" vertex="1" connectable="0" parent="hpCkqJ2XownlIG7Yb6gs-23">
          <mxGeometry x="0.2222" y="-5" relative="1" as="geometry">
            <mxPoint as="offset" />
          </mxGeometry>
        </mxCell>
        <mxCell id="hpCkqJ2XownlIG7Yb6gs-22" value="Предоплата" style="ellipse;whiteSpace=wrap;html=1;" vertex="1" parent="1">
          <mxGeometry x="720" y="160" width="120" height="80" as="geometry" />
        </mxCell>
        <mxCell id="hpCkqJ2XownlIG7Yb6gs-33" style="edgeStyle=orthogonalEdgeStyle;rounded=0;orthogonalLoop=1;jettySize=auto;html=1;entryX=0;entryY=0.5;entryDx=0;entryDy=0;curved=1;dashed=1;" edge="1" parent="1" source="hpCkqJ2XownlIG7Yb6gs-25" target="hpCkqJ2XownlIG7Yb6gs-26">
          <mxGeometry relative="1" as="geometry" />
        </mxCell>
        <mxCell id="hpCkqJ2XownlIG7Yb6gs-41" value="extend" style="edgeLabel;html=1;align=center;verticalAlign=middle;resizable=0;points=[];" vertex="1" connectable="0" parent="hpCkqJ2XownlIG7Yb6gs-33">
          <mxGeometry x="0.107" relative="1" as="geometry">
            <mxPoint as="offset" />
          </mxGeometry>
        </mxCell>
        <mxCell id="hpCkqJ2XownlIG7Yb6gs-34" style="edgeStyle=orthogonalEdgeStyle;rounded=0;orthogonalLoop=1;jettySize=auto;html=1;exitX=1;exitY=0.5;exitDx=0;exitDy=0;curved=1;dashed=1;" edge="1" parent="1" source="hpCkqJ2XownlIG7Yb6gs-25" target="hpCkqJ2XownlIG7Yb6gs-27">
          <mxGeometry relative="1" as="geometry" />
        </mxCell>
        <mxCell id="hpCkqJ2XownlIG7Yb6gs-42" value="extend" style="edgeLabel;html=1;align=center;verticalAlign=middle;resizable=0;points=[];" vertex="1" connectable="0" parent="hpCkqJ2XownlIG7Yb6gs-34">
          <mxGeometry x="0.3217" y="-6" relative="1" as="geometry">
            <mxPoint as="offset" />
          </mxGeometry>
        </mxCell>
        <mxCell id="hpCkqJ2XownlIG7Yb6gs-35" style="edgeStyle=orthogonalEdgeStyle;rounded=0;orthogonalLoop=1;jettySize=auto;html=1;exitX=1;exitY=0.5;exitDx=0;exitDy=0;entryX=0;entryY=0.5;entryDx=0;entryDy=0;curved=1;dashed=1;" edge="1" parent="1" source="hpCkqJ2XownlIG7Yb6gs-25" target="hpCkqJ2XownlIG7Yb6gs-32">
          <mxGeometry relative="1" as="geometry" />
        </mxCell>
        <mxCell id="hpCkqJ2XownlIG7Yb6gs-43" value="extend" style="edgeLabel;html=1;align=center;verticalAlign=middle;resizable=0;points=[];" vertex="1" connectable="0" parent="hpCkqJ2XownlIG7Yb6gs-35">
          <mxGeometry x="0.3619" y="12" relative="1" as="geometry">
            <mxPoint as="offset" />
          </mxGeometry>
        </mxCell>
        <mxCell id="hpCkqJ2XownlIG7Yb6gs-25" value="Управление мероприятиями" style="ellipse;whiteSpace=wrap;html=1;" vertex="1" parent="1">
          <mxGeometry x="250" y="495" width="120" height="80" as="geometry" />
        </mxCell>
        <mxCell id="hpCkqJ2XownlIG7Yb6gs-26" value="Редактирование" style="ellipse;whiteSpace=wrap;html=1;" vertex="1" parent="1">
          <mxGeometry x="414" y="410" width="110" height="70" as="geometry" />
        </mxCell>
        <mxCell id="hpCkqJ2XownlIG7Yb6gs-27" value="Удаление" style="ellipse;whiteSpace=wrap;html=1;" vertex="1" parent="1">
          <mxGeometry x="530" y="460" width="110" height="70" as="geometry" />
        </mxCell>
        <mxCell id="hpCkqJ2XownlIG7Yb6gs-28" value="Добавление" style="ellipse;whiteSpace=wrap;html=1;" vertex="1" parent="1">
          <mxGeometry x="414" y="610" width="110" height="70" as="geometry" />
        </mxCell>
        <mxCell id="hpCkqJ2XownlIG7Yb6gs-32" value="Просмотр" style="ellipse;whiteSpace=wrap;html=1;" vertex="1" parent="1">
          <mxGeometry x="530" y="550" width="110" height="70" as="geometry" />
        </mxCell>
        <mxCell id="hpCkqJ2XownlIG7Yb6gs-36" style="edgeStyle=orthogonalEdgeStyle;rounded=0;orthogonalLoop=1;jettySize=auto;html=1;exitX=1;exitY=0.5;exitDx=0;exitDy=0;entryX=0.305;entryY=0.071;entryDx=0;entryDy=0;entryPerimeter=0;curved=1;dashed=1;" edge="1" parent="1" source="hpCkqJ2XownlIG7Yb6gs-25" target="hpCkqJ2XownlIG7Yb6gs-28">
          <mxGeometry relative="1" as="geometry">
            <Array as="points">
              <mxPoint x="420" y="535" />
              <mxPoint x="420" y="615" />
            </Array>
          </mxGeometry>
        </mxCell>
        <mxCell id="hpCkqJ2XownlIG7Yb6gs-44" value="extend" style="edgeLabel;html=1;align=center;verticalAlign=middle;resizable=0;points=[];" vertex="1" connectable="0" parent="hpCkqJ2XownlIG7Yb6gs-36">
          <mxGeometry x="0.2864" y="-2" relative="1" as="geometry">
            <mxPoint as="offset" />
          </mxGeometry>
        </mxCell>
        <mxCell id="hpCkqJ2XownlIG7Yb6gs-37" value="Регистрация" style="ellipse;whiteSpace=wrap;html=1;" vertex="1" parent="1">
          <mxGeometry x="170" y="330" width="120" height="80" as="geometry" />
        </mxCell>
        <mxCell id="hpCkqJ2XownlIG7Yb6gs-46" style="edgeStyle=orthogonalEdgeStyle;rounded=0;orthogonalLoop=1;jettySize=auto;html=1;entryX=0;entryY=0.375;entryDx=0;entryDy=0;entryPerimeter=0;curved=1;" edge="1" parent="1" source="hpCkqJ2XownlIG7Yb6gs-1" target="hpCkqJ2XownlIG7Yb6gs-5">
          <mxGeometry relative="1" as="geometry" />
        </mxCell>
      </root>
    </mxGraphModel>
  </diagram>
</mxfile>
